<svg xmlns="http://www.w3.org/2000/svg" width="43" height="43" viewBox="0 0 43 43">
  <path id="svg-16" d="M24.5,3A21.5,21.5,0,1,0,46,24.476,21.5,21.5,0,0,0,24.5,3ZM35.09,16.5c-.139,1.995-3.827,16.894-3.827,16.894a1.2,1.2,0,0,1-1.032.893,1.386,1.386,0,0,1-1.056-.413c-.848-.709-2.771-2.086-4.584-3.344a2,2,0,0,1-.229.205c-.411.365-1.03.893-1.7,1.536-.251.229-.526.48-.8.755l-.024.024a4.794,4.794,0,0,1-.413.366c-.893.733-.984.115-.984-.205l.48-5.248v-.048l.024-.045a.168.168,0,0,1,.069-.091s9.374-8.342,9.627-9.238c.022-.045-.048-.091-.162-.045-.619.205-11.414,7.038-12.606,7.793a.594.594,0,0,1-.275.024l-5.248-1.72a.667.667,0,0,1-.413-.824.786.786,0,0,1,.368-.389c1.168-.827,21.5-8.137,21.5-8.137a1.907,1.907,0,0,1,.915-.072.559.559,0,0,1,.344.368,2.193,2.193,0,0,1,.048.483c0,.115-.024.251-.024.48Z" transform="translate(-3 -3)" fill="#000000"/>
</svg>
