<svg xmlns="http://www.w3.org/2000/svg" width="42.998" height="35.833" viewBox="0 0 42.998 35.833">
  <path id="svg-17" d="M16.517,39.833c16.221,0,25.1-13.774,25.1-25.712,0-.382,0-.764-.024-1.171A18.1,18.1,0,0,0,46,8.276a18.069,18.069,0,0,1-5.081,1.433,9.135,9.135,0,0,0,3.894-5.017,17.008,17.008,0,0,1-5.619,2.2A8.6,8.6,0,0,0,32.764,4a8.951,8.951,0,0,0-8.834,9.047,9.825,9.825,0,0,0,.234,2.054A24.832,24.832,0,0,1,5.985,5.648,9.216,9.216,0,0,0,4.8,10.206a9.123,9.123,0,0,0,3.918,7.52A8.691,8.691,0,0,1,4.726,16.6v.119a8.992,8.992,0,0,0,7.062,8.858,8.337,8.337,0,0,1-2.332.311A7.613,7.613,0,0,1,7.8,25.725,8.84,8.84,0,0,0,16.052,32,17.4,17.4,0,0,1,5.1,35.873,15.222,15.222,0,0,1,3,35.753a24.381,24.381,0,0,0,13.516,4.08Z" transform="translate(-3.001 -4)" fill="#000000"/>
</svg>
